<?xml version="1.0" standalone="no"?>
<!DOCTYPE svg PUBLIC "-//W3C//DTD SVG 20010904//EN"
 "http://www.w3.org/TR/2001/REC-SVG-20010904/DTD/svg10.dtd">
<svg version="1.0" xmlns="http://www.w3.org/2000/svg"
 width="500.000000pt" height="500.000000pt" viewBox="0 0 500.000000 500.000000"
 preserveAspectRatio="xMidYMid meet">

<g transform="translate(0.000000,500.000000) scale(0.100000,-0.100000)"
fill="#000000" stroke="none">
<path d="M0 2500 l0 -2500 2500 0 2500 0 0 2500 0 2500 -2500 0 -2500 0 0
-2500z m2415 1105 c60 -77 133 -170 163 -208 l53 -67 88 75 88 75 99 -102 c94
-98 260 -271 369 -385 l49 -53 -39 0 c-37 1 -45 6 -115 85 -42 48 -83 85 -93
85 -17 0 -44 -26 -106 -100 -18 -21 -17 -15 7 40 52 118 56 104 -67 232 l-110
113 -66 -65 c-37 -36 -80 -82 -97 -103 l-30 -38 25 -102 c14 -56 25 -103 23
-104 -2 -2 -41 35 -87 81 l-84 85 -124 -70 c-68 -38 -126 -67 -129 -65 -2 3
41 54 97 114 99 106 103 110 161 122 33 7 60 14 60 17 0 3 -236 331 -250 346
-4 5 -69 -94 -145 -220 -76 -125 -143 -234 -150 -241 -10 -11 -17 -2 -35 42
-12 31 -26 56 -31 56 -4 0 -65 -64 -135 -142 -71 -79 -125 -136 -122 -127 8
22 238 390 256 412 11 12 30 17 72 17 68 0 62 -7 165 165 101 166 116 188 124
178 4 -4 56 -71 116 -148z m-599 -730 c27 -14 60 -35 72 -48 l23 -24 -44 -49
-44 -48 -36 31 c-67 59 -144 56 -201 -7 -80 -89 -68 -235 25 -298 28 -20 43
-23 88 -19 46 3 59 9 83 36 15 17 28 40 28 51 0 18 -7 20 -65 20 l-65 0 0 55
0 55 140 0 140 0 0 -63 c0 -119 -49 -205 -144 -255 -43 -23 -63 -27 -136 -27
-99 0 -142 17 -205 80 -65 64 -89 125 -89 225 -1 68 4 95 22 135 24 52 66 101
116 138 72 51 198 57 292 12z m1241 13 c6 -7 36 -80 67 -163 32 -82 61 -153
65 -157 4 -5 36 67 71 160 l65 167 72 3 c69 3 73 2 77 -20 3 -13 14 -138 26
-278 12 -140 23 -267 26 -282 l6 -28 -71 0 -70 0 -5 33 c-3 17 -10 95 -16 172
-6 76 -12 140 -13 141 -1 2 -30 -75 -63 -169 l-60 -172 -41 -3 c-31 -2 -42 1
-48 15 -4 10 -29 83 -57 163 -28 80 -54 151 -58 159 -4 7 -13 -66 -20 -163
l-13 -176 -69 0 -68 0 0 33 c0 17 11 151 25 297 14 146 25 268 25 273 0 13
137 8 147 -5z m-608 -159 c31 -11 61 -52 61 -83 0 -8 -14 -31 -32 -51 l-31
-36 21 -22 22 -21 23 22 23 22 24 -25 24 -25 -22 -22 -22 -22 37 -38 37 -38
-49 0 c-30 0 -55 6 -66 16 -17 15 -22 15 -64 -6 -86 -42 -185 -1 -185 76 0 26
8 40 40 67 36 31 38 35 25 53 -23 30 -19 87 8 111 34 32 76 39 126 22z m-869
-604 c0 -8 -9 -15 -20 -15 -18 0 -20 -7 -20 -55 0 -30 -4 -55 -10 -55 -5 0
-10 25 -10 55 0 48 -3 55 -19 55 -21 0 -34 13 -24 24 3 3 28 6 55 6 36 0 48
-4 48 -15z m198 3 c-3 -7 -21 -14 -41 -16 -50 -4 -51 -32 -2 -32 44 0 46 -18
3 -22 -48 -4 -44 -32 5 -36 55 -5 45 -22 -13 -22 l-50 0 0 70 0 70 51 0 c36 0
49 -4 47 -12z m190 6 c12 -4 22 -13 22 -20 0 -16 -5 -17 -28 -5 -30 15 -62 -5
-62 -38 0 -36 27 -55 65 -45 27 7 35 -10 9 -20 -30 -11 -58 -6 -81 16 -30 28
-29 63 2 93 25 26 35 29 73 19z m152 -24 c0 -28 3 -30 35 -30 32 0 35 2 35 30
0 17 5 30 10 30 6 0 10 -30 10 -70 0 -68 -15 -98 -22 -42 -2 22 -8 28 -35 30
-31 3 -33 1 -33 -27 0 -21 -5 -31 -15 -31 -12 0 -15 14 -15 70 0 56 3 70 15
70 10 0 15 -10 15 -30z m261 -17 l34 -48 3 48 c5 73 22 55 22 -23 0 -83 -11
-89 -55 -27 l-30 42 -3 -42 c-2 -29 -8 -43 -18 -43 -11 0 -14 16 -14 70 0 85
12 90 61 23z m284 22 c30 -30 31 -54 4 -89 -38 -49 -129 -20 -129 41 0 32 43
73 75 73 14 0 37 -11 50 -25z m145 -35 l0 -60 30 0 c17 0 30 -4 30 -10 0 -5
-20 -10 -45 -10 l-45 0 0 63 c0 35 3 67 7 70 17 17 23 2 23 -53z m265 35 c31
-30 32 -62 3 -92 -31 -33 -80 -31 -108 4 -55 70 42 151 105 88z m213 19 c12
-4 22 -13 22 -21 0 -10 -6 -13 -17 -8 -58 22 -99 -15 -68 -61 20 -32 59 -29
63 4 5 32 22 27 22 -7 0 -17 -6 -31 -16 -35 -79 -30 -143 62 -78 113 29 22 36
24 72 15z m156 -26 c18 -30 20 -30 33 -12 8 10 18 26 23 34 5 8 12 11 16 7 4
-4 -2 -25 -14 -46 -12 -21 -22 -50 -22 -65 0 -16 -5 -26 -15 -26 -10 0 -15 10
-15 28 0 15 -9 41 -20 57 -21 31 -26 55 -12 55 4 0 16 -14 26 -32z"/>
<path d="M2385 2670 c-9 -14 2 -60 14 -60 17 0 42 32 39 49 -4 19 -43 27 -53
11z"/>
<path d="M2356 2517 c-27 -20 -17 -51 18 -55 44 -5 55 14 25 43 -21 22 -27 24
-43 12z"/>
<path d="M2577 2103 c-13 -12 -7 -61 9 -73 38 -32 95 27 64 66 -13 14 -61 19
-73 7z"/>
<path d="M2992 2098 c-21 -21 -14 -57 14 -70 36 -17 59 0 59 43 0 30 -3 34
-30 37 -17 2 -36 -3 -43 -10z"/>
</g>
</svg>
